#Comment line ignore any data following # character 
#Hierarchical Translation and Rotation (.htr) file 
[Header]	
#Header keywords are followed by a single value 
FileType HTR		#Single word string
DataType HTRS		#Translation followed by rotation and scale data
FileVersion 1		#integer
NumSegments 64		#integer
NumFrames 3		#integer
DataFrameRate 30		#integer, data frame rate in this file
EulerRotationOrder ZYX
CalibrationUnits mm
RotationUnits Degrees
GlobalAxisofGravity Y
BoneLengthAxis Y
ScaleFactor 1.00
[SegmentNames&Hierarchy]
#CHILD	PARENT
Pinger_Root GLOBAL
Pelvis Pinger_Root
L_Hip Pelvis
R_Hip Pelvis
Rear_Leg01 Pelvis
Spine1 Pelvis
L_Leg01 L_Hip
L_Leg02 L_Leg01
L_Leg03 L_Leg02
L_Foot L_Leg03
L_Toe1_01 L_Foot
L_Toe2_01 L_Foot
L_Toe3_01 L_Foot
planeAlignerLeft L_Foot
L_Toe1_02 L_Toe1_01
L_Toe1_03 L_Toe1_02
L_Toe2_02 L_Toe2_01
L_Toe2_03 L_Toe2_02
L_Toe3_02 L_Toe3_01
L_Toe3_03 L_Toe3_02
planeLockWeightLeft planeAlignerLeft
R_Leg01 R_Hip
R_Leg02 R_Leg01
R_Leg03 R_Leg02
R_Foot R_Leg03
planeAlignerRight R_Foot
R_Toe1_01 R_Foot
R_Toe2_01 R_Foot
R_Toe3_01 R_Foot
planeLockWeightRight planeAlignerRight
R_Toe1_02 R_Toe1_01
R_Toe1_03 R_Toe1_02
R_Toe2_02 R_Toe2_01
R_Toe2_03 R_Toe2_02
R_Toe3_02 R_Toe3_01
R_Toe3_03 R_Toe3_02
Rear_Leg02 Rear_Leg01
Rear_Leg03 Rear_Leg02
Rear_Leg04 Rear_Leg03
Rear_Foot Rear_Leg04
planeAlignerCenter Rear_Foot
Rear_Toe1_01 Rear_Foot
Rear_Toe2_01 Rear_Foot
Rear_Toe3_01 Rear_Foot
planeLockWeightCenter planeAlignerCenter
Rear_Toe1_02 Rear_Toe1_01
Rear_Toe1_03 Rear_Toe1_02
Rear_Toe2_02 Rear_Toe2_01
Rear_Toe2_03 Rear_Toe2_02
Rear_Toe3_02 Rear_Toe3_01
Rear_Toe3_03 Rear_Toe3_02
Back_Bone Spine1
Head Spine1
Motor_Bone Back_Bone
Ping_Mechanism Back_Bone
BN_LookIK Head
bottomMouth Head
L_Mouth01 Head
L_mouthFront Head
mouthGun Head
R_Mouth01 Head
R_mouthFront Head
TopMouth Head
weapon_bone Head
[BasePosition]
#SegmentName Tx, Ty, Tz, Rx, Ry, Rz, BoneLength
Pinger_Root 0.000000 0.000000 0.000000 -90.000000 0.000000 0.000000 10.000000 
Pelvis 0.000000 0.000000 0.000000 0.000000 0.000000 0.000000 10.000000 
L_Hip 0.000000 0.000000 0.000000 0.000000 0.000000 0.000000 10.000000 
R_Hip 0.000000 0.000000 0.000000 0.000000 0.000000 0.000000 10.000000 
Rear_Leg01 0.000000 0.000000 0.000000 0.000000 0.000000 0.000000 10.000000 
Spine1 0.000000 0.000000 0.000000 0.000000 0.000000 0.000000 10.000000 
L_Leg01 0.000000 0.000000 0.000000 0.000000 0.000000 0.000000 10.000000 
L_Leg02 0.000000 0.000000 0.000000 0.000000 0.000000 0.000000 10.000000 
L_Leg03 0.000000 0.000000 0.000000 0.000000 0.000000 0.000000 10.000000 
L_Foot 0.000000 0.000000 0.000000 0.000000 0.000000 0.000000 10.000000 
L_Toe1_01 0.000000 0.000000 0.000000 0.000000 0.000000 0.000000 10.000000 
L_Toe2_01 0.000000 0.000000 0.000000 0.000000 0.000000 0.000000 10.000000 
L_Toe3_01 0.000000 0.000000 0.000000 0.000000 0.000000 0.000000 10.000000 
planeAlignerLeft 0.000000 0.000000 0.000000 0.000000 0.000000 0.000000 10.000000 
L_Toe1_02 0.000000 0.000000 0.000000 0.000000 0.000000 0.000000 10.000000 
L_Toe1_03 0.000000 0.000000 0.000000 0.000000 0.000000 0.000000 10.000000 
L_Toe2_02 0.000000 0.000000 0.000000 0.000000 0.000000 0.000000 10.000000 
L_Toe2_03 0.000000 0.000000 0.000000 0.000000 0.000000 0.000000 10.000000 
L_Toe3_02 0.000000 0.000000 0.000000 0.000000 0.000000 0.000000 10.000000 
L_Toe3_03 0.000000 0.000000 0.000000 0.000000 0.000000 0.000000 10.000000 
planeLockWeightLeft 0.000000 0.000000 0.000000 0.000000 0.000000 0.000000 10.000000 
R_Leg01 0.000000 0.000000 0.000000 0.000000 0.000000 0.000000 10.000000 
R_Leg02 0.000000 0.000000 0.000000 0.000000 0.000000 0.000000 10.000000 
R_Leg03 0.000000 0.000000 0.000000 0.000000 0.000000 0.000000 10.000000 
R_Foot 0.000000 0.000000 0.000000 0.000000 0.000000 0.000000 10.000000 
planeAlignerRight 0.000000 0.000000 0.000000 0.000000 0.000000 0.000000 10.000000 
R_Toe1_01 0.000000 0.000000 0.000000 0.000000 0.000000 0.000000 10.000000 
R_Toe2_01 0.000000 0.000000 0.000000 0.000000 0.000000 0.000000 10.000000 
R_Toe3_01 0.000000 0.000000 0.000000 0.000000 0.000000 0.000000 10.000000 
planeLockWeightRight 0.000000 0.000000 0.000000 0.000000 0.000000 0.000000 10.000000 
R_Toe1_02 0.000000 0.000000 0.000000 0.000000 0.000000 0.000000 10.000000 
R_Toe1_03 0.000000 0.000000 0.000000 0.000000 0.000000 0.000000 10.000000 
R_Toe2_02 0.000000 0.000000 0.000000 0.000000 0.000000 0.000000 10.000000 
R_Toe2_03 0.000000 0.000000 0.000000 0.000000 0.000000 0.000000 10.000000 
R_Toe3_02 0.000000 0.000000 0.000000 0.000000 0.000000 0.000000 10.000000 
R_Toe3_03 0.000000 0.000000 0.000000 0.000000 0.000000 0.000000 10.000000 
Rear_Leg02 0.000000 0.000000 0.000000 0.000000 0.000000 0.000000 10.000000 
Rear_Leg03 0.000000 0.000000 0.000000 0.000000 0.000000 0.000000 10.000000 
Rear_Leg04 0.000000 0.000000 0.000000 0.000000 0.000000 0.000000 10.000000 
Rear_Foot 0.000000 0.000000 0.000000 0.000000 0.000000 0.000000 10.000000 
planeAlignerCenter 0.000000 0.000000 0.000000 0.000000 0.000000 0.000000 10.000000 
Rear_Toe1_01 0.000000 0.000000 0.000000 0.000000 0.000000 0.000000 10.000000 
Rear_Toe2_01 0.000000 0.000000 0.000000 0.000000 0.000000 0.000000 10.000000 
Rear_Toe3_01 0.000000 0.000000 0.000000 0.000000 0.000000 0.000000 10.000000 
planeLockWeightCenter 0.000000 0.000000 0.000000 0.000000 0.000000 0.000000 10.000000 
Rear_Toe1_02 0.000000 0.000000 0.000000 0.000000 0.000000 0.000000 10.000000 
Rear_Toe1_03 0.000000 0.000000 0.000000 0.000000 0.000000 0.000000 10.000000 
Rear_Toe2_02 0.000000 0.000000 0.000000 0.000000 0.000000 0.000000 10.000000 
Rear_Toe2_03 0.000000 0.000000 0.000000 0.000000 0.000000 0.000000 10.000000 
Rear_Toe3_02 0.000000 0.000000 0.000000 0.000000 0.000000 0.000000 10.000000 
Rear_Toe3_03 0.000000 0.000000 0.000000 0.000000 0.000000 0.000000 10.000000 
Back_Bone 0.000000 0.000000 0.000000 0.000000 0.000000 0.000000 10.000000 
Head 0.000000 0.000000 0.000000 0.000000 0.000000 0.000000 10.000000 
Motor_Bone 0.000000 0.000000 0.000000 0.000000 0.000000 0.000000 10.000000 
Ping_Mechanism 0.000000 0.000000 0.000000 0.000000 0.000000 0.000000 10.000000 
BN_LookIK 0.000000 0.000000 0.000000 0.000000 0.000000 0.000000 10.000000 
bottomMouth 0.000000 0.000000 0.000000 0.000000 0.000000 0.000000 10.000000 
L_Mouth01 0.000000 0.000000 0.000000 0.000000 0.000000 0.000000 10.000000 
L_mouthFront 0.000000 0.000000 0.000000 0.000000 0.000000 0.000000 10.000000 
mouthGun 0.000000 0.000000 0.000000 0.000000 0.000000 0.000000 10.000000 
R_Mouth01 0.000000 0.000000 0.000000 0.000000 0.000000 0.000000 10.000000 
R_mouthFront 0.000000 0.000000 0.000000 0.000000 0.000000 0.000000 10.000000 
TopMouth 0.000000 0.000000 0.000000 0.000000 0.000000 0.000000 10.000000 
weapon_bone 0.000000 0.000000 0.000000 0.000000 0.000000 0.000000 10.000000 
#Beginning of Data. Separated by tabs
#Fr	Tx	Ty	Tz	Rx	Ry	Rz	SF
[Pinger_Root]
8 0.000000 0.000000 0.000000 -0.000075 -0.000000 -0.000020 0.000000
9 0.000000 0.000000 0.000000 -0.000075 -0.000000 -0.000020 0.000000
10 0.000000 0.000000 0.000000 -0.000075 -0.000000 -0.000020 0.000000
[Pelvis]
8 -135.012711 -824.094604 4218.721191 -109.141144 -76.849304 93.054634 4300.577637
9 -167.076996 -867.470215 4154.643555 -118.555542 -76.040810 100.388855 4247.526367
10 -194.618027 -904.018005 4081.060791 -130.699905 -73.963585 110.752579 4184.517090
[L_Hip]
8 5.766392 125.831482 872.656799 160.158691 -45.484905 122.312202 881.701050
9 5.766392 125.831482 872.656799 159.383698 -45.903660 122.972336 881.701050
10 5.766392 125.831482 872.656799 157.704651 -46.888756 124.369156 881.701050
[R_Hip]
8 5.765438 125.836372 -872.654907 15.979566 58.108871 98.606804 881.699829
9 5.765438 125.836372 -872.654907 7.954093 59.350758 88.482712 881.699829
10 5.765438 125.836372 -872.654907 -0.239744 60.546608 77.561569 881.699829
[Rear_Leg01]
8 -192.298416 -925.602966 -0.001907 121.932869 2.071711 -154.214142 945.367432
9 -192.298416 -925.602966 -0.001907 119.159866 2.002877 -154.525101 945.367432
10 -192.298416 -925.602966 -0.001907 115.862343 0.516798 -154.737579 945.367432
[Spine1]
8 290.604584 5.007505 0.000477 16.056803 -7.199709 18.902124 290.647736
9 290.604584 5.007505 0.000477 18.855486 -6.133463 18.531029 290.647736
10 290.604584 5.007505 0.000477 21.945904 -3.589861 18.088486 290.647736
[L_Leg01]
8 761.932007 -0.002384 -0.069261 26.139517 -21.376059 9.215871 761.932068
9 761.932007 -0.002384 -0.069261 24.417349 -18.866232 12.624272 761.932068
10 761.932007 -0.002384 -0.069261 24.400476 -17.574579 18.288694 761.932068
[L_Leg02]
8 1441.140503 -0.000954 -0.000715 -1.424493 0.691337 -84.711967 1441.140503
9 1441.140503 -0.000954 -0.000715 -1.446228 0.666902 -87.240669 1441.140503
10 1441.140503 -0.000954 -0.000715 -1.465991 0.631687 -90.743065 1441.140503
[L_Leg03]
8 1686.963989 -0.000715 -0.000954 0.072228 -0.014305 90.504730 1686.963989
9 1686.963989 -0.000715 -0.000954 0.063253 -0.013743 92.715759 1686.963989
10 1686.963989 -0.000715 -0.000954 0.054306 -0.012836 94.926765 1686.963989
[L_Foot]
8 3041.570068 -30.715107 11.297464 -8.787416 8.676486 25.471653 3041.746094
9 3041.570068 -30.715107 11.297464 -7.777875 6.501306 24.420229 3041.746094
10 3041.570068 -30.715107 11.297464 -7.434268 4.697734 23.001228 3041.746094
[L_Toe1_01]
8 -188.216690 -224.732346 -21.137953 94.280670 -28.131250 179.902283 293.899567
9 -188.216690 -224.732346 -21.137953 94.280670 -28.131250 179.902283 293.899567
10 -188.216690 -224.732346 -21.137953 94.280670 -28.131250 179.902283 293.899567
[L_Toe2_01]
8 200.746536 -219.926590 148.838394 -108.981415 -14.928393 -28.369226 332.896027
9 200.746536 -219.926590 148.838394 -108.981415 -14.928321 -28.369324 332.896027
10 200.746536 -219.926590 148.838394 -108.981407 -14.928247 -28.369423 332.896027
[L_Toe3_01]
8 188.832520 -219.859131 -191.078659 -119.528816 36.514465 -78.862701 347.140900
9 188.832520 -219.859131 -191.078659 -119.528816 36.514465 -78.862709 347.140900
10 188.832520 -219.859131 -191.078659 -119.528816 36.514473 -78.862709 347.140900
[planeAlignerLeft]
8 0.812531 -811.448792 -0.314951 0.000000 -90.000000 -90.001900 811.449280
9 0.812531 -811.448792 -0.314951 0.000000 -90.000000 -90.001900 811.449280
10 0.812531 -811.448792 -0.314951 0.000000 -90.000000 -90.001900 811.449280
[L_Toe1_02]
8 413.761139 0.000477 0.000000 0.001661 0.070897 0.001661 413.761139
9 413.761139 0.000477 0.000000 0.001661 0.070897 0.001661 413.761139
10 413.761139 0.000477 0.000000 0.001661 0.070897 0.001661 413.761139
[L_Toe1_03]
8 464.317322 0.000358 -0.000089 0.001673 -0.448396 -0.003292 464.317322
9 464.317322 0.000358 -0.000089 0.001673 -0.448396 -0.003292 464.317322
10 464.317322 0.000358 -0.000089 0.001673 -0.448396 -0.003292 464.317322
[L_Toe2_02]
8 342.235809 -0.000477 0.000238 0.004684 -81.227814 0.004684 342.235809
9 342.235809 -0.000477 0.000238 0.004684 -81.228081 0.004684 342.235809
10 342.235809 -0.000477 0.000238 0.004684 -81.228371 0.004684 342.235809
[L_Toe2_03]
8 420.210846 -0.000715 0.000000 179.993195 44.163803 -179.999222 420.210846
9 420.210846 -0.000715 0.000000 179.993195 44.163795 -179.999222 420.210846
10 420.210846 -0.000715 0.000000 179.993195 44.163795 -179.999222 420.210846
[L_Toe3_02]
8 329.270111 0.000954 0.000000 0.004675 -84.684776 0.004675 329.270111
9 329.270111 0.000954 0.000000 0.004675 -84.684265 0.004675 329.270111
10 329.270111 0.000954 0.000000 0.004675 -84.683640 0.004675 329.270111
[L_Toe3_03]
8 439.137451 -0.001907 0.000954 179.993454 37.691116 -179.998764 439.137451
9 439.137451 -0.001907 0.000954 179.993454 37.691116 -179.998764 439.137451
10 439.137451 -0.001907 0.000954 179.993454 37.691124 -179.998764 439.137451
[planeLockWeightLeft]
8 -0.000954 0.000238 -0.000305 -0.011826 -0.004376 0.005620 0.001029
9 -0.000954 0.000238 -0.000305 -0.011826 -0.004376 0.005620 0.001029
10 -0.000954 0.000238 -0.000305 -0.011826 -0.004376 0.005620 0.001029
[R_Leg01]
8 761.455627 -0.001907 -0.000358 129.899414 -51.359203 33.424839 761.455688
9 761.455627 -0.001907 -0.000358 128.433365 -53.445881 41.994598 761.455688
10 761.455627 -0.001907 -0.000358 126.114159 -55.342419 52.643909 761.455688
[R_Leg02]
8 1441.140625 0.000000 -0.000238 1.147054 -0.558425 -92.105743 1441.140625
9 1441.140625 0.000000 -0.000238 1.106929 -0.604869 -88.332230 1441.140625
10 1441.140625 0.000000 -0.000238 1.053370 -0.660756 -83.785431 1441.140625
[R_Leg03]
8 1686.963989 0.000954 0.001431 -0.074606 0.013899 89.864899 1686.963989
9 1686.963989 0.000954 0.001431 -0.092695 0.013809 85.442924 1686.963989
10 1686.963989 0.000954 0.001431 -0.110964 0.011443 80.090096 1686.963989
[R_Foot]
8 3041.560059 -30.531288 -11.204481 -1.272187 -26.083811 36.012203 3041.734131
9 3041.560059 -30.531288 -11.204481 -1.480238 -25.988159 36.498035 3041.734131
10 3041.560059 -30.531288 -11.204481 -1.497164 -25.990961 37.545071 3041.734131
[planeAlignerRight]
8 -0.635147 -812.270569 -0.364304 0.000000 -89.960434 -90.005180 812.270874
9 -0.635147 -812.270569 -0.364304 0.000000 -89.960434 -90.005180 812.270874
10 -0.635147 -812.270569 -0.364304 0.000000 -89.960434 -90.005180 812.270874
[R_Toe1_01]
8 -188.383347 -224.864899 21.052242 77.501526 2.586503 -171.440872 294.101532
9 -188.383347 -224.864899 21.052242 77.501526 2.586503 -171.440872 294.101532
10 -188.383347 -224.864899 21.052242 77.501541 2.586502 -171.440872 294.101532
[R_Toe2_01]
8 200.637817 -220.002121 -148.787384 -87.009552 41.674877 -47.437386 332.857574
9 200.637817 -220.002121 -148.787384 -87.009193 41.677402 -47.436417 332.857574
10 200.637817 -220.002121 -148.787384 -87.008835 41.679920 -47.435444 332.857574
[R_Toe3_01]
8 188.606735 -220.092957 191.126343 -74.726746 -14.672208 -63.953850 347.192566
9 188.606735 -220.092957 191.126343 -74.751801 -14.707769 -63.952995 347.192566
10 188.606735 -220.092957 191.126343 -74.776886 -14.743338 -63.952141 347.192566
[planeLockWeightRight]
8 -0.000477 0.000000 0.000000 -0.011823 -0.004379 -0.000027 0.000477
9 -0.000477 0.000000 0.000000 -0.011823 -0.004379 -0.000027 0.000477
10 -0.000477 0.000000 0.000000 -0.011823 -0.004379 -0.000027 0.000477
[R_Toe1_02]
8 413.762085 0.000477 -0.000119 0.001417 -21.781473 0.001417 413.762085
9 413.762085 0.000477 -0.000119 0.001417 -21.781693 0.001417 413.762085
10 413.762085 0.000477 -0.000119 0.001417 -21.781912 0.001417 413.762085
[R_Toe1_03]
8 464.317810 0.000000 0.001088 0.000899 28.933746 -0.003161 464.317810
9 464.317810 0.000000 0.001088 0.000899 28.933973 -0.003161 464.317810
10 464.317810 0.000000 0.001088 0.000899 28.934191 -0.003161 464.317810
[R_Toe2_02]
8 342.234741 -0.000954 0.000238 -0.002334 -78.705948 -0.002334 342.234741
9 342.234741 -0.000954 0.000238 -0.002334 -78.761276 -0.002334 342.234741
10 342.234741 -0.000954 0.000238 -0.002334 -78.761276 -0.002334 342.234741
[R_Toe2_03]
8 420.210846 0.000715 -0.000268 -179.994675 71.398071 -179.998215 420.210846
9 420.210846 0.000715 -0.000268 -179.994690 71.306732 -179.998230 420.210846
10 420.210846 0.000715 -0.000268 -179.994690 71.306999 -179.998230 420.210846
[R_Toe3_02]
8 329.270355 -0.000477 -0.000954 0.001175 -83.980179 0.001175 329.270355
9 329.270355 -0.000477 -0.000954 0.001175 -83.983925 0.001175 329.270355
10 329.270355 -0.000477 -0.000954 0.001175 -83.987610 0.001175 329.270355
[R_Toe3_03]
8 439.137939 0.000238 0.001431 -179.995316 57.592129 -179.988037 439.137939
9 439.137939 0.000238 0.001431 -179.995331 57.504646 -179.988052 439.137939
10 439.137939 0.000238 0.001431 -179.995331 57.504913 -179.988052 439.137939
[Rear_Leg02]
8 1162.777710 -0.029802 0.005960 -11.727775 49.704357 -109.572159 1162.777710
9 1162.777710 -0.029802 0.005960 -17.462315 50.820576 -116.704094 1162.777710
10 1162.777710 -0.029802 0.005960 -21.900890 49.498520 -122.595779 1162.777710
[Rear_Leg03]
8 607.192505 -0.013351 -0.073195 0.006477 -0.002103 64.193161 607.192505
9 607.192505 -0.013351 -0.073195 0.008528 -0.003526 65.652802 607.192505
10 607.192505 -0.013351 -0.073195 0.010542 -0.005001 67.112442 607.192505
[Rear_Leg04]
8 995.874512 -0.020504 -0.011921 -0.040490 -0.015234 58.035614 995.874573
9 995.874512 -0.020504 -0.011921 -0.042141 -0.016314 61.009373 995.874573
10 995.874512 -0.020504 -0.011921 -0.043846 -0.017307 63.983143 995.874573
[Rear_Foot]
8 3096.176270 -0.067472 -0.041425 96.965111 42.308601 -74.444298 3096.176270
9 3096.176270 -0.067472 -0.041425 94.093895 40.935310 -76.767807 3096.176270
10 3096.176270 -0.067472 -0.041425 93.245216 41.283676 -77.552116 3096.176270
[planeAlignerCenter]
8 0.350077 0.966311 -838.790894 0.000009 0.000003 -179.999985 838.791565
9 0.350077 0.966311 -838.790894 0.000009 0.000003 -179.999985 838.791565
10 0.350077 0.966311 -838.790894 0.000009 0.000003 -179.999985 838.791565
[Rear_Toe1_01]
8 0.653352 83.966492 -371.173737 -24.029320 22.174910 86.339401 380.553192
9 0.653352 83.966492 -371.173737 -27.574745 22.482370 86.447891 380.553192
10 0.653352 83.966492 -371.173737 -29.892551 22.708807 86.585106 380.553192
[Rear_Toe2_01]
8 178.200760 -294.826019 -362.060547 -8.126038 -0.232063 -62.796501 499.765686
9 178.200760 -294.826019 -362.060547 -8.131499 -0.236010 -62.564377 499.765686
10 178.200760 -294.826019 -362.060547 -8.136976 -0.239934 -62.332226 499.765686
[Rear_Toe3_01]
8 -153.359680 -308.780914 -362.060852 3.733905 13.238083 -103.412926 499.952881
9 -153.359680 -308.780914 -362.060852 3.734139 13.357530 -103.118950 499.952881
10 -153.359680 -308.780914 -362.060852 3.735004 13.476973 -102.824806 499.952881
[planeLockWeightCenter]
8 -0.000062 0.000238 0.000000 -0.011814 -0.004373 -0.000015 0.000246
9 -0.000062 0.000238 0.000000 -0.011814 -0.004373 -0.000015 0.000246
10 -0.000062 0.000238 0.000000 -0.011814 -0.004373 -0.000015 0.000246
[Rear_Toe1_02]
8 379.707825 0.194073 0.000477 -0.006718 -30.075930 -0.006718 379.707855
9 379.707825 0.194073 0.000477 -0.006718 -30.047754 -0.006718 379.707855
10 379.707825 0.194073 0.000477 -0.006719 -30.019583 -0.006719 379.707855
[Rear_Toe1_03]
8 500.129700 0.165701 0.000119 -179.994827 70.556458 -179.998367 500.129761
9 500.129700 0.165701 0.000119 -179.994827 70.559120 -179.998367 500.129761
10 500.129700 0.165701 0.000119 -179.994827 70.561813 -179.998367 500.129761
[Rear_Toe2_02]
8 340.494507 0.000238 -0.000954 0.001661 0.065807 0.001661 340.494507
9 340.494507 0.000238 -0.000954 0.001661 0.065661 0.001661 340.494507
10 340.494507 0.000238 -0.000954 0.001661 0.065516 0.001661 340.494507
[Rear_Toe2_03]
8 433.103577 0.000000 0.000238 -0.003297 -0.804493 0.001683 433.103546
9 433.103577 0.000000 0.000238 -0.003297 -0.804494 0.001683 433.103546
10 433.103577 0.000000 0.000238 -0.003297 -0.804493 0.001683 433.103546
[Rear_Toe3_02]
8 340.494141 -0.000358 -0.000477 -0.002610 -35.760002 -0.002610 340.494171
9 340.494141 -0.000358 -0.000477 -0.002603 -36.342030 -0.002603 340.494171
10 340.494141 -0.000358 -0.000477 -0.002602 -36.498264 -0.002602 340.494171
[Rear_Toe3_03]
8 433.103577 0.001431 -0.000238 0.006383 29.880030 -0.001697 433.103546
9 433.103577 0.001431 -0.000238 0.006391 30.422606 -0.001667 433.103546
10 433.103577 0.001431 -0.000238 0.006394 30.568733 -0.001659 433.103546
[Back_Bone]
8 1312.175781 -701.934692 0.000954 2.984944 -4.323675 -60.655571 1488.125488
9 1312.175781 -701.934692 0.000954 4.080458 -5.986355 -65.921555 1488.125488
10 1312.175781 -701.934692 0.000954 4.634783 -6.867501 -73.386681 1488.125488
[Head]
8 1406.159424 809.709290 0.001431 -1.066679 -1.194321 52.117168 1622.625488
9 1406.159424 809.709290 0.001431 -0.921103 -1.283150 46.144428 1622.625488
10 1406.159424 809.709290 0.001431 -0.654100 -1.435863 35.058193 1622.625488
[Motor_Bone]
8 1158.364380 -417.834747 0.000477 8.526793 13.844977 -49.788216 1231.419434
9 1158.364380 -417.834747 0.000477 6.156885 12.000175 -51.782967 1231.419434
10 1158.364380 -417.834747 0.000477 1.761826 7.592354 -56.232311 1231.419434
[Ping_Mechanism]
8 1229.995728 -654.285706 -0.368275 0.000103 -0.000053 82.120995 1393.190430
9 1236.030762 -653.628723 -10.061951 0.000103 -0.000053 82.120995 1398.250244
10 1246.308594 -652.403503 -27.245174 0.000103 -0.000053 82.120995 1407.003052
[BN_LookIK]
8 193.241119 1380.371704 -0.002861 0.000000 89.965736 -31.038179 1393.832153
9 193.241119 1380.371704 -0.002861 0.000000 89.965736 -31.038179 1393.832153
10 193.241119 1380.371704 -0.002861 0.000000 89.965736 -31.038179 1393.832153
[bottomMouth]
8 -435.092926 615.759399 -0.000954 -0.000022 0.000016 73.527184 753.966492
9 -435.092926 615.759399 -0.000954 -0.000022 0.000016 73.527184 753.966492
10 -435.092926 615.759399 -0.000954 -0.000022 0.000016 73.527184 753.966492
[L_Mouth01]
8 554.440979 7.658243 838.222046 150.204178 23.759130 109.605339 1005.027161
9 554.440979 7.658243 838.222046 150.204178 23.759130 109.605339 1005.027161
10 554.440979 7.658243 838.222046 150.204178 23.759130 109.605339 1005.027161
[L_mouthFront]
8 551.629089 934.514771 339.150421 0.000081 2.804060 79.119301 1136.941284
9 551.629089 934.514771 339.150421 0.000081 2.804060 79.119301 1136.941284
10 551.629089 934.514771 339.150421 0.000081 2.804060 79.119301 1136.941284
[mouthGun]
8 55.332661 1627.420898 0.000000 0.000023 0.000009 -11.038128 1628.361328
9 55.332661 1627.420898 0.000000 0.000023 0.000009 -11.038128 1628.361328
10 55.332661 1627.420898 0.000000 0.000023 0.000009 -11.038128 1628.361328
[R_Mouth01]
8 554.442383 7.659197 -838.223938 29.795891 -23.759109 109.605331 1005.029541
9 554.442383 7.659197 -838.223938 29.795891 -23.759109 109.605331 1005.029541
10 554.442383 7.659197 -838.223938 29.795891 -23.759109 109.605331 1005.029541
[R_mouthFront]
8 551.629089 934.514282 -339.151367 0.000029 -2.803930 79.119133 1136.941162
9 551.629089 934.514282 -339.151367 0.000029 -2.803930 79.119133 1136.941162
10 551.629089 934.514282 -339.151367 0.000029 -2.803930 79.119133 1136.941162
[TopMouth]
8 461.269867 -56.106091 -0.008583 -0.000059 -0.000268 92.025169 464.669525
9 461.269867 -56.106091 -0.008583 -0.000059 -0.000268 92.025169 464.669525
10 461.269867 -56.106091 -0.008583 -0.000059 -0.000268 92.025169 464.669525
[weapon_bone]
8 -987.239868 1448.372803 0.001431 0.000000 89.965736 -31.038221 1752.833740
9 -987.239868 1448.372803 0.001431 0.000000 89.965736 -31.038221 1752.833740
10 -987.239868 1448.372803 0.001431 0.000000 89.965736 -31.038221 1752.833740
